<svg width="175" height="181" viewBox="0 0 175 181" fill="none" xmlns="http://www.w3.org/2000/svg">
<g clip-path="url(#clip0_318_509)">
<path d="M32.0442 17.8889C30.1465 17.8889 28.3264 18.6428 26.9845 19.9847C25.6426 21.3267 24.8887 23.1467 24.8887 25.0445V53.6667H60.6665V17.8889H32.0442ZM51.722 44.7222H33.8331V26.8334H51.722V44.7222Z" fill="black"/>
<path d="M24.8887 135.955C24.8887 137.853 25.6426 139.673 26.9845 141.015C28.3264 142.357 30.1465 143.111 32.0442 143.111H60.6665V107.333H24.8887V135.955ZM33.8331 116.278H51.722V134.167H33.8331V116.278Z" fill="black"/>
<path d="M114.333 143.111H142.956C144.853 143.111 146.674 142.357 148.015 141.015C149.357 139.673 150.111 137.853 150.111 135.955V107.333H114.333V143.111ZM123.278 116.278H141.167V134.167H123.278V116.278Z" fill="black"/>
<path d="M142.956 17.8889H114.333V53.6667H150.111V25.0445C150.111 23.1467 149.357 21.3267 148.015 19.9847C146.674 18.6428 144.853 17.8889 142.956 17.8889ZM141.167 44.7222H123.278V26.8334H141.167V44.7222Z" fill="black"/>
<path d="M96.4446 44.7223V35.7778H78.5557V53.6667H87.5001V44.7223H96.4446Z" fill="black"/>
<path d="M60.6665 53.6667H69.6109V62.6112H60.6665V53.6667Z" fill="black"/>
<path d="M69.6113 62.6111H87.5002V71.5555H69.6113V62.6111Z" fill="black"/>
<path d="M96.4447 26.8334V35.7778H105.389V17.8889H69.6113V35.7778H78.5558V26.8334H96.4447Z" fill="black"/>
<path d="M24.8887 62.6111H33.8331V80.5H24.8887V62.6111Z" fill="black"/>
<path d="M60.6665 71.5555V80.5H51.722V62.6111H42.7776V80.5H33.8331V89.4444H24.8887V98.3889H42.7776V89.4444H51.722V98.3889H60.6665V89.4444H69.6109V71.5555H60.6665Z" fill="black"/>
<path d="M96.4444 71.5555H105.389V80.4999H114.333V71.5555H123.278V62.6111H105.389V44.7222H96.4444V53.6666H87.5V62.6111H96.4444V71.5555Z" fill="black"/>
<path d="M87.5002 134.167H69.6113V143.111H105.389V134.167H96.4447V125.222H87.5002V134.167Z" fill="black"/>
<path d="M105.389 89.4446V80.5001H96.4446V71.5557H87.5001V80.5001H78.5557V89.4446H87.5001V98.389H96.4446V89.4446H105.389Z" fill="black"/>
<path d="M141.167 89.4443H150.111V98.3888H141.167V89.4443Z" fill="black"/>
<path d="M105.389 89.4443H132.222V98.3888H105.389V89.4443Z" fill="black"/>
<path d="M141.167 62.6111H132.222V71.5555H123.278V80.5H132.222V89.4444H141.167V80.5H150.111V71.5555H141.167V62.6111Z" fill="black"/>
<path d="M96.4443 98.3889H105.389V125.222H96.4443V98.3889Z" fill="black"/>
<path d="M69.6113 125.222H78.5558V116.278H87.5002V107.333H78.5558V89.4443H69.6113V125.222Z" fill="black"/>
</g>
<path d="M25.4318 165.091C25.3466 164.371 25.0009 163.812 24.3949 163.415C23.7888 163.017 23.0454 162.818 22.1647 162.818C21.5208 162.818 20.9574 162.922 20.4744 163.131C19.9962 163.339 19.6221 163.625 19.3522 163.99C19.0871 164.355 18.9545 164.769 18.9545 165.233C18.9545 165.621 19.0468 165.955 19.2315 166.234C19.4209 166.509 19.6624 166.739 19.9559 166.923C20.2495 167.103 20.5573 167.252 20.8792 167.371C21.2012 167.484 21.4971 167.577 21.767 167.648L23.2443 168.045C23.6231 168.145 24.0445 168.282 24.5085 168.457C24.9772 168.633 25.4247 168.872 25.8508 169.175C26.2817 169.473 26.6368 169.857 26.9162 170.325C27.1955 170.794 27.3352 171.369 27.3352 172.051C27.3352 172.837 27.1292 173.547 26.7173 174.182C26.3101 174.816 25.7135 175.321 24.9275 175.695C24.1463 176.069 23.1969 176.256 22.0795 176.256C21.0378 176.256 20.1359 176.088 19.3735 175.751C18.616 175.415 18.0194 174.946 17.5838 174.345C17.1529 173.744 16.9091 173.045 16.8522 172.25H18.6704C18.7178 172.799 18.9024 173.254 19.2244 173.614C19.5511 173.969 19.963 174.234 20.4602 174.409C20.9621 174.58 21.5019 174.665 22.0795 174.665C22.7519 174.665 23.3556 174.556 23.8906 174.338C24.4256 174.116 24.8494 173.808 25.1619 173.415C25.4744 173.017 25.6306 172.553 25.6306 172.023C25.6306 171.54 25.4957 171.147 25.2258 170.844C24.9559 170.541 24.6008 170.295 24.1605 170.105C23.7201 169.916 23.2443 169.75 22.7329 169.608L20.9431 169.097C19.8068 168.77 18.9072 168.304 18.2443 167.697C17.5814 167.091 17.25 166.298 17.25 165.318C17.25 164.504 17.4701 163.794 17.9105 163.188C18.3556 162.577 18.9521 162.103 19.7002 161.767C20.4531 161.426 21.2935 161.256 22.2216 161.256C23.1591 161.256 23.9924 161.424 24.7216 161.76C25.4507 162.091 26.0284 162.546 26.4545 163.124C26.8854 163.701 27.1127 164.357 27.1363 165.091H25.4318ZM34.1401 176.227C33.0889 176.227 32.1822 175.995 31.4199 175.531C30.6623 175.062 30.0776 174.409 29.6656 173.571C29.2584 172.728 29.0548 171.748 29.0548 170.631C29.0548 169.513 29.2584 168.528 29.6656 167.676C30.0776 166.819 30.6505 166.152 31.3844 165.673C32.123 165.19 32.9848 164.949 33.9696 164.949C34.5378 164.949 35.0989 165.044 35.6529 165.233C36.2068 165.422 36.7111 165.73 37.1656 166.156C37.6202 166.578 37.9824 167.136 38.2523 167.832C38.5222 168.528 38.6571 169.385 38.6571 170.403V171.114H30.248V169.665H36.9526C36.9526 169.049 36.8295 168.5 36.5833 168.017C36.3418 167.534 35.9961 167.153 35.5463 166.874C35.1012 166.594 34.5757 166.455 33.9696 166.455C33.302 166.455 32.7244 166.62 32.2367 166.952C31.7537 167.278 31.382 167.705 31.1216 168.23C30.8612 168.756 30.731 169.319 30.731 169.92V170.886C30.731 171.71 30.873 172.409 31.1571 172.982C31.4459 173.55 31.846 173.983 32.3574 174.281C32.8688 174.575 33.463 174.722 34.1401 174.722C34.5804 174.722 34.9781 174.66 35.3333 174.537C35.6931 174.409 36.0032 174.22 36.2637 173.969C36.5241 173.713 36.7253 173.396 36.8673 173.017L38.4867 173.472C38.3162 174.021 38.0298 174.504 37.6273 174.92C37.2248 175.332 36.7277 175.654 36.1358 175.886C35.544 176.114 34.8787 176.227 34.1401 176.227ZM45.201 176.227C44.1783 176.227 43.2976 175.986 42.559 175.503C41.8203 175.02 41.2521 174.355 40.8544 173.507C40.4567 172.66 40.2578 171.691 40.2578 170.602C40.2578 169.494 40.4614 168.517 40.8686 167.669C41.2805 166.817 41.8535 166.152 42.5874 165.673C43.326 165.19 44.1877 164.949 45.1726 164.949C45.9396 164.949 46.6309 165.091 47.2465 165.375C47.862 165.659 48.3662 166.057 48.7592 166.568C49.1522 167.08 49.3961 167.676 49.4908 168.358H47.8146C47.6868 167.861 47.4027 167.42 46.9624 167.037C46.5268 166.649 45.9396 166.455 45.201 166.455C44.5476 166.455 43.9747 166.625 43.4822 166.966C42.9946 167.302 42.6134 167.778 42.3388 168.393C42.0689 169.004 41.934 169.722 41.934 170.545C41.934 171.388 42.0665 172.122 42.3317 172.747C42.6016 173.372 42.9804 173.857 43.468 174.203C43.9605 174.549 44.5381 174.722 45.201 174.722C45.6366 174.722 46.032 174.646 46.3871 174.494C46.7422 174.343 47.0429 174.125 47.2891 173.841C47.5353 173.557 47.7105 173.216 47.8146 172.818H49.4908C49.3961 173.462 49.1617 174.042 48.7876 174.558C48.4183 175.07 47.9283 175.477 47.3175 175.78C46.7114 176.078 46.0059 176.227 45.201 176.227ZM58.3784 171.54V165.091H60.0545V176H58.3784V174.153H58.2648C58.0091 174.707 57.6113 175.179 57.0716 175.567C56.5318 175.95 55.85 176.142 55.0261 176.142C54.3443 176.142 53.7382 175.993 53.2079 175.695C52.6776 175.392 52.261 174.937 51.9579 174.331C51.6549 173.72 51.5034 172.951 51.5034 172.023V165.091H53.1795V171.909C53.1795 172.705 53.4021 173.339 53.8471 173.812C54.297 174.286 54.8699 174.523 55.5659 174.523C55.9826 174.523 56.4063 174.416 56.8372 174.203C57.2728 173.99 57.6374 173.663 57.931 173.223C58.2292 172.783 58.3784 172.222 58.3784 171.54ZM62.6868 176V165.091H64.3061V166.739H64.4198C64.6186 166.199 64.9785 165.761 65.4993 165.425C66.0202 165.089 66.6073 164.92 67.2607 164.92C67.3838 164.92 67.5377 164.923 67.7223 164.928C67.907 164.932 68.0467 164.939 68.1414 164.949V166.653C68.0846 166.639 67.9543 166.618 67.7507 166.589C67.5519 166.556 67.3412 166.54 67.1186 166.54C66.5883 166.54 66.1149 166.651 65.6982 166.874C65.2863 167.091 64.9596 167.394 64.7181 167.783C64.4813 168.166 64.363 168.604 64.363 169.097V176H62.6868ZM73.9324 176.227C72.8813 176.227 71.9745 175.995 71.2122 175.531C70.4547 175.062 69.8699 174.409 69.458 173.571C69.0508 172.728 68.8472 171.748 68.8472 170.631C68.8472 169.513 69.0508 168.528 69.458 167.676C69.8699 166.819 70.4428 166.152 71.1767 165.673C71.9154 165.19 72.7771 164.949 73.762 164.949C74.3301 164.949 74.8912 165.044 75.4452 165.233C75.9992 165.422 76.5034 165.73 76.958 166.156C77.4125 166.578 77.7747 167.136 78.0446 167.832C78.3145 168.528 78.4495 169.385 78.4495 170.403V171.114H70.0404V169.665H76.7449C76.7449 169.049 76.6218 168.5 76.3756 168.017C76.1341 167.534 75.7885 167.153 75.3387 166.874C74.8936 166.594 74.368 166.455 73.762 166.455C73.0943 166.455 72.5167 166.62 72.029 166.952C71.546 167.278 71.1744 167.705 70.9139 168.23C70.6535 168.756 70.5233 169.319 70.5233 169.92V170.886C70.5233 171.71 70.6654 172.409 70.9495 172.982C71.2383 173.55 71.6384 173.983 72.1497 174.281C72.6611 174.575 73.2553 174.722 73.9324 174.722C74.3728 174.722 74.7705 174.66 75.1256 174.537C75.4854 174.409 75.7956 174.22 76.056 173.969C76.3164 173.713 76.5176 173.396 76.6597 173.017L78.279 173.472C78.1085 174.021 77.8221 174.504 77.4196 174.92C77.0172 175.332 76.52 175.654 75.9281 175.886C75.3363 176.114 74.671 176.227 73.9324 176.227ZM84.6808 176.227C83.7717 176.227 82.9692 175.998 82.2732 175.538C81.5771 175.074 81.0326 174.421 80.6396 173.578C80.2466 172.731 80.0501 171.729 80.0501 170.574C80.0501 169.428 80.2466 168.434 80.6396 167.591C81.0326 166.748 81.5795 166.097 82.2803 165.638C82.981 165.179 83.7907 164.949 84.7092 164.949C85.4195 164.949 85.9805 165.067 86.3925 165.304C86.8091 165.536 87.1264 165.801 87.3442 166.099C87.5667 166.393 87.7395 166.634 87.8626 166.824H88.0047V161.455H89.6808V176H88.0615V174.324H87.8626C87.7395 174.523 87.5644 174.774 87.3371 175.077C87.1098 175.375 86.7855 175.643 86.3641 175.879C85.9427 176.111 85.3816 176.227 84.6808 176.227ZM84.9081 174.722C85.5805 174.722 86.1486 174.546 86.6126 174.196C87.0767 173.841 87.4294 173.351 87.6709 172.726C87.9124 172.096 88.0331 171.369 88.0331 170.545C88.0331 169.731 87.9147 169.018 87.678 168.408C87.4412 167.792 87.0909 167.314 86.6269 166.973C86.1628 166.627 85.5899 166.455 84.9081 166.455C84.1979 166.455 83.606 166.637 83.1325 167.001C82.6638 167.361 82.311 167.851 82.0743 168.472C81.8423 169.087 81.7263 169.778 81.7263 170.545C81.7263 171.322 81.8447 172.027 82.0814 172.662C82.3229 173.292 82.678 173.794 83.1467 174.168C83.6202 174.537 84.2073 174.722 84.9081 174.722ZM97.9603 176V161.455H99.6365V166.824H99.7785C99.9016 166.634 100.072 166.393 100.29 166.099C100.512 165.801 100.83 165.536 101.242 165.304C101.658 165.067 102.222 164.949 102.932 164.949C103.85 164.949 104.66 165.179 105.361 165.638C106.062 166.097 106.609 166.748 107.002 167.591C107.395 168.434 107.591 169.428 107.591 170.574C107.591 171.729 107.395 172.731 107.002 173.578C106.609 174.421 106.064 175.074 105.368 175.538C104.672 175.998 103.869 176.227 102.96 176.227C102.26 176.227 101.699 176.111 101.277 175.879C100.856 175.643 100.531 175.375 100.304 175.077C100.077 174.774 99.9016 174.523 99.7785 174.324H99.5797V176H97.9603ZM99.6081 170.545C99.6081 171.369 99.7288 172.096 99.9703 172.726C100.212 173.351 100.565 173.841 101.029 174.196C101.493 174.546 102.061 174.722 102.733 174.722C103.434 174.722 104.019 174.537 104.487 174.168C104.961 173.794 105.316 173.292 105.553 172.662C105.794 172.027 105.915 171.322 105.915 170.545C105.915 169.778 105.797 169.087 105.56 168.472C105.328 167.851 104.975 167.361 104.502 167.001C104.033 166.637 103.443 166.455 102.733 166.455C102.051 166.455 101.478 166.627 101.014 166.973C100.55 167.314 100.2 167.792 99.9632 168.408C99.7264 169.018 99.6081 169.731 99.6081 170.545ZM110.406 180.091C110.122 180.091 109.869 180.067 109.646 180.02C109.424 179.977 109.27 179.935 109.185 179.892L109.611 178.415C110.018 178.519 110.378 178.557 110.69 178.528C111.003 178.5 111.28 178.36 111.521 178.109C111.767 177.863 111.992 177.463 112.196 176.909L112.508 176.057L108.474 165.091H110.293L113.304 173.784H113.418L116.429 165.091H118.247L113.616 177.591C113.408 178.154 113.15 178.621 112.842 178.99C112.535 179.364 112.177 179.641 111.77 179.821C111.367 180.001 110.913 180.091 110.406 180.091ZM125.436 176V161.455H130.351C131.488 161.455 132.42 161.649 133.149 162.037C133.879 162.42 134.418 162.948 134.769 163.621C135.119 164.293 135.294 165.058 135.294 165.915C135.294 166.772 135.119 167.532 134.769 168.195C134.418 168.857 133.881 169.378 133.157 169.757C132.432 170.131 131.507 170.318 130.38 170.318H126.402V168.727H130.323C131.099 168.727 131.724 168.614 132.198 168.386C132.676 168.159 133.022 167.837 133.235 167.42C133.453 166.999 133.561 166.497 133.561 165.915C133.561 165.332 133.453 164.823 133.235 164.388C133.017 163.952 132.669 163.616 132.191 163.379C131.712 163.138 131.08 163.017 130.294 163.017H127.198V176H125.436ZM132.283 169.466L135.863 176H133.817L130.294 169.466H132.283ZM137.792 176V161.455H146.513V163.017H139.553V167.932H145.86V169.494H139.553V176H137.792ZM149.092 176V161.455H157.871V163.017H150.854V167.932H157.416V169.494H150.854V174.438H157.984V176H149.092Z" fill="#2861F3"/>
<defs>
<clipPath id="clip0_318_509">
<rect width="161" height="161" fill="white" transform="translate(7)"/>
</clipPath>
</defs>
</svg>
